<mxfile host="app.diagrams.net" modified="2023-08-02T00:52:48.183Z" agent="Mozilla/5.0 (Windows NT 10.0; Win64; x64) AppleWebKit/537.36 (KHTML, like Gecko) Chrome/115.0.0.0 Safari/537.36" etag="hNsbU_LKSjxuNyb_iiq2" version="21.6.6" type="github">
  <diagram name="Page-1" id="thWkmkb8Xr1IMuUVKCKM">
    <mxGraphModel dx="1434" dy="790" grid="1" gridSize="10" guides="1" tooltips="1" connect="1" arrows="1" fold="1" page="1" pageScale="1" pageWidth="827" pageHeight="1169" math="0" shadow="0">
      <root>
        <mxCell id="0" />
        <mxCell id="1" parent="0" />
        <mxCell id="mu1fRLtZtuoRQNvjPA3v-1" value="OA系统&lt;br&gt;oa.com" style="rounded=1;whiteSpace=wrap;html=1;" vertex="1" parent="1">
          <mxGeometry x="310" y="270" width="120" height="60" as="geometry" />
        </mxCell>
        <mxCell id="mu1fRLtZtuoRQNvjPA3v-2" value="认证中心&lt;br&gt;sso.com" style="rounded=1;whiteSpace=wrap;html=1;" vertex="1" parent="1">
          <mxGeometry x="580" y="270" width="120" height="60" as="geometry" />
        </mxCell>
        <mxCell id="mu1fRLtZtuoRQNvjPA3v-3" value="" style="shape=actor;whiteSpace=wrap;html=1;" vertex="1" parent="1">
          <mxGeometry x="130" y="335" width="40" height="60" as="geometry" />
        </mxCell>
        <mxCell id="mu1fRLtZtuoRQNvjPA3v-4" value="" style="shape=singleArrow;whiteSpace=wrap;html=1;" vertex="1" parent="1">
          <mxGeometry x="205" y="365" width="160" height="20" as="geometry" />
        </mxCell>
        <mxCell id="mu1fRLtZtuoRQNvjPA3v-5" value="访问&lt;br&gt;oa.com/index" style="text;html=1;strokeColor=none;fillColor=none;align=center;verticalAlign=middle;whiteSpace=wrap;rounded=0;" vertex="1" parent="1">
          <mxGeometry x="205" y="335" width="120" height="30" as="geometry" />
        </mxCell>
        <mxCell id="mu1fRLtZtuoRQNvjPA3v-8" value="" style="line;strokeWidth=4;direction=south;html=1;perimeter=backbonePerimeter;points=[];outlineConnect=0;" vertex="1" parent="1">
          <mxGeometry x="365" y="335" width="10" height="565" as="geometry" />
        </mxCell>
        <mxCell id="mu1fRLtZtuoRQNvjPA3v-9" value="" style="line;strokeWidth=4;direction=south;html=1;perimeter=backbonePerimeter;points=[];outlineConnect=0;" vertex="1" parent="1">
          <mxGeometry x="650" y="335" width="10" height="565" as="geometry" />
        </mxCell>
        <mxCell id="mu1fRLtZtuoRQNvjPA3v-10" value="" style="shape=singleArrow;whiteSpace=wrap;html=1;" vertex="1" parent="1">
          <mxGeometry x="375" y="420" width="265" height="20" as="geometry" />
        </mxCell>
        <mxCell id="mu1fRLtZtuoRQNvjPA3v-11" value="重定向&lt;br&gt;sso.com/auth?client_id=oa&amp;amp;redirect_uri=oa.com/login" style="text;html=1;strokeColor=none;fillColor=none;align=center;verticalAlign=middle;whiteSpace=wrap;rounded=0;" vertex="1" parent="1">
          <mxGeometry x="430" y="385" width="120" height="30" as="geometry" />
        </mxCell>
        <mxCell id="mu1fRLtZtuoRQNvjPA3v-12" value="" style="shape=singleArrow;whiteSpace=wrap;html=1;rotation=-179;" vertex="1" parent="1">
          <mxGeometry x="215.03" y="518.52" width="434.98" height="20" as="geometry" />
        </mxCell>
        <mxCell id="mu1fRLtZtuoRQNvjPA3v-13" value="返回登录页&lt;br&gt;sso.com/login" style="text;html=1;strokeColor=none;fillColor=none;align=center;verticalAlign=middle;whiteSpace=wrap;rounded=0;" vertex="1" parent="1">
          <mxGeometry x="440" y="488.52" width="120" height="30" as="geometry" />
        </mxCell>
        <mxCell id="mu1fRLtZtuoRQNvjPA3v-14" value="" style="shape=singleArrow;whiteSpace=wrap;html=1;" vertex="1" parent="1">
          <mxGeometry x="205" y="620" width="445" height="20" as="geometry" />
        </mxCell>
        <mxCell id="mu1fRLtZtuoRQNvjPA3v-15" value="输入用户名密码&lt;br&gt;username&amp;amp;password" style="text;html=1;strokeColor=none;fillColor=none;align=center;verticalAlign=middle;whiteSpace=wrap;rounded=0;" vertex="1" parent="1">
          <mxGeometry x="215.03" y="590" width="120" height="30" as="geometry" />
        </mxCell>
        <mxCell id="mu1fRLtZtuoRQNvjPA3v-16" value="" style="shape=singleArrow;whiteSpace=wrap;html=1;rotation=-179;" vertex="1" parent="1">
          <mxGeometry x="385.03" y="711.48" width="264.97" height="20" as="geometry" />
        </mxCell>
        <mxCell id="mu1fRLtZtuoRQNvjPA3v-17" value="重定向&lt;br&gt;oa.com/login" style="text;html=1;strokeColor=none;fillColor=none;align=center;verticalAlign=middle;whiteSpace=wrap;rounded=0;" vertex="1" parent="1">
          <mxGeometry x="490" y="681.48" width="120" height="30" as="geometry" />
        </mxCell>
      </root>
    </mxGraphModel>
  </diagram>
</mxfile>
